<?xml version="1.0" encoding="UTF-8"?><svg id="Capa_1" xmlns="http://www.w3.org/2000/svg" viewBox="0 0 582.85 100.61"><defs><style>.cls-1{fill:none;stroke:aqua;}.cls-1,.cls-2,.cls-3{stroke-miterlimit:10;}.cls-4,.cls-2,.cls-3{stroke:#fff;}.cls-4,.cls-3{fill:#fff;}.cls-2{fill:aqua;}</style></defs><path class="cls-3" d="m4.11,18.62c4.34-.9,10.54-1.39,16.45-1.39,9.15,0,15.08,1.67,19.21,5.41,3.36,2.95,5.22,7.49,5.22,12.62,0,8.77-5.52,14.59-12.51,16.94v.3c5.13,1.78,8.17,6.5,9.75,13.39,2.16,9.26,3.74,15.68,5.13,18.22h-8.88c-1.09-1.88-2.57-7.59-4.43-15.87-1.97-9.15-5.52-12.62-13.3-12.9h-8.09v28.77H4.11V18.62Zm8.58,30.24h8.77c9.15,0,14.97-5.03,14.97-12.62,0-8.58-6.2-12.32-15.27-12.41-4.15,0-7.1.39-8.47.79,0,0,0,24.23,0,24.23Z"/><path class="cls-4" d="m62.03,61.86c.19,11.72,7.68,16.56,16.36,16.56,6.2,0,9.95-1.09,13.2-2.46l1.48,6.2c-3.06,1.37-8.28,2.95-15.87,2.95-14.67,0-23.44-9.65-23.44-24.04s8.47-25.71,22.37-25.71c15.57,0,19.7,13.69,19.7,22.46,0,1.78-.19,3.14-.3,4.04,0,0-33.5,0-33.5,0Zm25.43-6.2c.11-5.52-2.27-14.1-12.02-14.1-8.77,0-12.62,8.09-13.3,14.1h25.32Z"/><path class="cls-4" d="m116.23,23.04c.11,2.95-2.07,5.33-5.52,5.33-3.06,0-5.22-2.37-5.22-5.33s2.27-5.41,5.41-5.41,5.33,2.37,5.33,5.41Zm-9.65,61.09v-47.7h8.66v47.7h-8.66Z"/><path class="cls-4" d="m129.62,49.35c0-4.92-.11-8.96-.39-12.9h7.68l.49,7.89h.19c2.37-4.53,7.89-8.96,15.76-8.96,6.61,0,16.85,3.94,16.85,20.3v28.47h-8.66v-27.48c0-7.68-2.87-14.1-11.04-14.1-5.71,0-10.14,4.04-11.64,8.88-.39,1.09-.6,2.57-.6,4.04v28.68h-8.66v-34.82Z"/><path class="cls-4" d="m198.32,7.43l-2.59,55.8c1.58,4.34,2.87,8.28,3.85,12.21h.3c1.09-3.94,2.46-7.89,4.04-12.21l9.26-26.8h9.07l-18.72,47.7h-8.28l-18.14-47.7s21.2-29,21.2-29Z"/><path class="cls-4" d="m234.27,61.86c.19,11.72,7.68,16.56,16.36,16.56,6.2,0,9.95-1.09,13.2-2.46l1.48,6.2c-3.06,1.37-8.28,2.95-15.87,2.95-14.67,0-23.44-9.65-23.44-24.04s8.47-25.71,22.37-25.71c15.57,0,19.7,13.69,19.7,22.46,0,1.78-.19,3.14-.3,4.04h-33.5Zm25.43-6.2c.11-5.52-2.27-14.1-12.02-14.1-8.77,0-12.62,8.09-13.3,14.1h25.32Z"/><path class="cls-4" d="m278.81,49.35c0-4.92-.11-8.96-.38-12.9h7.68l.49,7.89h.19c2.37-4.53,7.89-8.96,15.76-8.96,6.61,0,16.85,3.94,16.85,20.3v28.47h-8.66v-27.48c0-7.68-2.87-14.1-11.04-14.1-5.71,0-10.14,4.04-11.64,8.88-.38,1.09-.6,2.57-.6,4.04v28.68h-8.66v-34.82Z"/><path class="cls-4" d="m343.53,22.74v13.69h12.41v6.61h-12.41v25.71c0,5.9,1.67,9.26,6.5,9.26,2.27,0,3.94-.3,5.03-.6l.38,6.5c-1.67.68-4.34,1.18-7.68,1.18-4.04,0-7.29-1.28-9.37-3.66-2.46-2.57-3.36-6.8-3.36-12.41v-26.01h-7.4v-6.61h7.4v-11.42l8.47-2.27.02.02Z"/><path class="cls-4" d="m392.1,84.13l-.68-6.01h-.3c-2.65,3.74-7.79,7.1-14.59,7.1-9.65,0-14.59-6.8-14.59-13.69,0-11.53,10.25-17.84,28.68-17.73v-.98c0-3.94-1.09-11.04-10.84-11.04-4.43,0-9.07,1.37-12.41,3.55l-1.97-5.71c3.94-2.57,9.65-4.24,15.66-4.24,14.59,0,18.14,9.95,18.14,19.51v17.84c0,4.13.19,8.17.79,11.42h-7.89v-.02Zm-1.28-24.34c-9.45-.19-20.19,1.48-20.19,10.74,0,5.63,3.74,8.28,8.17,8.28,6.2,0,10.14-3.94,11.53-7.98.3-.9.49-1.88.49-2.76v-8.28Z"/><path class="cls-4" d="m413.19,49.35c0-4.92-.11-8.96-.38-12.9h7.59l.38,7.68h.3c2.65-4.53,7.1-8.77,14.97-8.77,6.5,0,11.42,3.94,13.5,9.56h.19c1.48-2.65,3.36-4.73,5.33-6.2,2.87-2.16,6.01-3.36,10.54-3.36,6.31,0,15.66,4.13,15.66,20.68v28.08h-8.47v-26.99c0-9.15-3.36-14.67-10.35-14.67-4.92,0-8.77,3.66-10.25,7.89-.38,1.18-.68,2.76-.68,4.34v29.45h-8.47v-28.58c0-7.59-3.36-13.11-9.95-13.11-5.41,0-9.37,4.34-10.74,8.66-.49,1.28-.68,2.76-.68,4.24v28.77h-8.47v-34.78h-.02Z"/><path class="cls-4" d="m538.53,59.9c0,17.65-12.21,25.32-23.74,25.32-12.9,0-22.86-9.45-22.86-24.53,0-15.96,10.44-25.32,23.66-25.32s22.95,9.95,22.95,24.53h0Zm-37.84.49c0,10.44,6.01,18.33,14.48,18.33s14.48-7.79,14.48-18.52c0-8.09-4.04-18.33-14.29-18.33s-14.67,9.45-14.67,18.52h0Z"/><path class="cls-4" d="m548.29,75.28c2.57,1.67,7.1,3.44,11.42,3.44,6.31,0,9.26-3.14,9.26-7.1s-2.46-6.4-8.88-8.77c-8.58-3.06-12.62-7.79-12.62-13.5,0-7.68,6.2-13.99,16.45-13.99,4.83,0,9.07,1.37,11.72,2.95l-2.16,6.31c-1.88-1.18-5.33-2.76-9.75-2.76-5.13,0-7.98,2.95-7.98,6.5,0,3.94,2.87,5.71,9.07,8.09,8.28,3.14,12.51,7.29,12.51,14.39,0,8.38-6.5,14.29-17.84,14.29-5.22,0-10.05-1.28-13.41-3.25l2.16-6.61h.04Z"/><line class="cls-1" x1="283.4" y1="99.4" x2="582.85" y2="100.11"/><path class="cls-1" d="m0,.5c10.16.02,20.32.04,30.48.06,16.98.04,33.94.09,50.93.13,13.48.04,26.93.06,40.4.09,16.15.04,32.28.09,48.42.11"/><polygon class="cls-2" points="196.16 54.4 181.98 34.17 185.04 57.24 177.12 36.45 198.32 7.43 196.16 54.4"/></svg>