<?xml version="1.0" encoding="UTF-8"?><svg id="Capa_1" xmlns="http://www.w3.org/2000/svg" viewBox="0 0 272.5 47.57"><defs><style>.cls-1{fill:#ffc200;}.cls-1,.cls-2,.cls-3{stroke:#fff;}.cls-1,.cls-4,.cls-5,.cls-3{stroke-miterlimit:10;}.cls-2,.cls-3{fill:#fff;}.cls-4{stroke:#e30613;}.cls-4,.cls-5{fill:none;}.cls-5{stroke:#34d000;}</style></defs><path class="cls-3" d="m1.92,8.97c2.03-.42,4.93-.65,7.69-.65,4.28,0,7.05.78,8.98,2.53,1.57,1.38,2.44,3.5,2.44,5.9,0,4.1-2.58,6.82-5.85,7.92v.14c2.4.83,3.82,3.04,4.56,6.26,1.01,4.33,1.75,7.33,2.4,8.52h-4.15c-.51-.88-1.2-3.55-2.07-7.42-.92-4.28-2.58-5.9-6.22-6.03h-3.78v13.45H1.92V8.97Zm4.01,14.14h4.1c4.28,0,7-2.35,7-5.9,0-4.01-2.9-5.76-7.14-5.8-1.94,0-3.32.18-3.96.37v11.33Z"/><path class="cls-2" d="m29,29.19c.09,5.48,3.59,7.74,7.65,7.74,2.9,0,4.65-.51,6.17-1.15l.69,2.9c-1.43.64-3.87,1.38-7.42,1.38-6.86,0-10.96-4.51-10.96-11.24s3.96-12.02,10.46-12.02c7.28,0,9.21,6.4,9.21,10.5,0,.83-.09,1.47-.14,1.89h-15.66Zm11.89-2.9c.05-2.58-1.06-6.59-5.62-6.59-4.1,0-5.9,3.78-6.22,6.59h11.84Z"/><path class="cls-2" d="m54.34,11.04c.05,1.38-.97,2.49-2.58,2.49-1.43,0-2.44-1.11-2.44-2.49s1.06-2.53,2.53-2.53,2.49,1.11,2.49,2.53Zm-4.51,28.56v-22.3h4.05v22.3h-4.05Z"/><path class="cls-2" d="m60.6,23.34c0-2.3-.05-4.19-.18-6.03h3.59l.23,3.69h.09c1.11-2.12,3.69-4.19,7.37-4.19,3.09,0,7.88,1.84,7.88,9.49v13.31h-4.05v-12.85c0-3.59-1.34-6.59-5.16-6.59-2.67,0-4.74,1.89-5.44,4.15-.18.51-.28,1.2-.28,1.89v13.41h-4.05v-16.26Z"/><path class="cls-2" d="m92.72,3.74l-1.21,26.09c.74,2.03,1.34,3.87,1.8,5.71h.14c.51-1.84,1.15-3.69,1.89-5.71l4.33-12.53h4.24l-8.75,22.3h-3.87l-8.48-22.3,9.91-13.56Z"/><path class="cls-2" d="m109.53,29.19c.09,5.48,3.59,7.74,7.65,7.74,2.9,0,4.65-.51,6.17-1.15l.69,2.9c-1.43.64-3.87,1.38-7.42,1.38-6.86,0-10.96-4.51-10.96-11.24s3.96-12.02,10.46-12.02c7.28,0,9.21,6.4,9.21,10.5,0,.83-.09,1.47-.14,1.89h-15.66Zm11.89-2.9c.05-2.58-1.06-6.59-5.62-6.59-4.1,0-5.9,3.78-6.22,6.59h11.84Z"/><path class="cls-2" d="m130.35,23.34c0-2.3-.05-4.19-.18-6.03h3.59l.23,3.69h.09c1.11-2.12,3.69-4.19,7.37-4.19,3.09,0,7.88,1.84,7.88,9.49v13.31h-4.05v-12.85c0-3.59-1.34-6.59-5.16-6.59-2.67,0-4.74,1.89-5.44,4.15-.18.51-.28,1.2-.28,1.89v13.41h-4.05v-16.26Z"/><path class="cls-2" d="m160.61,10.9v6.4h5.8v3.09h-5.8v12.02c0,2.76.78,4.33,3.04,4.33,1.06,0,1.84-.14,2.35-.28l.18,3.04c-.78.32-2.03.55-3.59.55-1.89,0-3.41-.6-4.38-1.71-1.15-1.2-1.57-3.18-1.57-5.8v-12.16h-3.46v-3.09h3.46v-5.34l3.96-1.06Z"/><path class="cls-2" d="m183.32,39.6l-.32-2.81h-.14c-1.24,1.75-3.64,3.32-6.82,3.32-4.51,0-6.82-3.18-6.82-6.4,0-5.39,4.79-8.34,13.41-8.29v-.46c0-1.84-.51-5.16-5.07-5.16-2.07,0-4.24.64-5.8,1.66l-.92-2.67c1.84-1.2,4.51-1.98,7.32-1.98,6.82,0,8.48,4.65,8.48,9.12v8.34c0,1.93.09,3.82.37,5.34h-3.69Zm-.6-11.38c-4.42-.09-9.44.69-9.44,5.02,0,2.63,1.75,3.87,3.82,3.87,2.9,0,4.74-1.84,5.39-3.73.14-.42.23-.88.23-1.29v-3.87Z"/><path class="cls-2" d="m193.18,23.34c0-2.3-.05-4.19-.18-6.03h3.55l.18,3.59h.14c1.24-2.12,3.32-4.1,7-4.1,3.04,0,5.34,1.84,6.31,4.47h.09c.69-1.24,1.57-2.21,2.49-2.9,1.34-1.01,2.81-1.57,4.93-1.57,2.95,0,7.32,1.93,7.32,9.67v13.13h-3.96v-12.62c0-4.28-1.57-6.86-4.84-6.86-2.3,0-4.1,1.71-4.79,3.69-.18.55-.32,1.29-.32,2.03v13.77h-3.96v-13.36c0-3.55-1.57-6.13-4.65-6.13-2.53,0-4.38,2.03-5.02,4.05-.23.6-.32,1.29-.32,1.98v13.45h-3.96v-16.26Z"/><path class="cls-2" d="m251.78,28.27c0,8.25-5.71,11.84-11.1,11.84-6.03,0-10.69-4.42-10.69-11.47,0-7.46,4.88-11.84,11.06-11.84s10.73,4.65,10.73,11.47Zm-17.69.23c0,4.88,2.81,8.57,6.77,8.57s6.77-3.64,6.77-8.66c0-3.78-1.89-8.57-6.68-8.57s-6.86,4.42-6.86,8.66Z"/><path class="cls-2" d="m256.34,35.46c1.2.78,3.32,1.61,5.34,1.61,2.95,0,4.33-1.47,4.33-3.32,0-1.93-1.15-2.99-4.15-4.1-4.01-1.43-5.9-3.64-5.9-6.31,0-3.59,2.9-6.54,7.69-6.54,2.26,0,4.24.64,5.48,1.38l-1.01,2.95c-.88-.55-2.49-1.29-4.56-1.29-2.4,0-3.73,1.38-3.73,3.04,0,1.84,1.34,2.67,4.24,3.78,3.87,1.47,5.85,3.41,5.85,6.73,0,3.92-3.04,6.68-8.34,6.68-2.44,0-4.7-.6-6.27-1.52l1.01-3.09Z"/><line class="cls-4" x1="132.5" y1="46.74" x2="272.5" y2="47.07"/><path class="cls-5" d="m0,.5c4.75.01,9.5.02,14.25.03,7.94.02,15.87.04,23.81.06,6.3.02,12.59.03,18.89.04,7.55.02,15.09.04,22.64.05"/><polygon class="cls-1" points="91.71 25.7 85.08 16.24 86.51 27.03 82.81 17.31 92.72 3.74 91.71 25.7"/></svg>