<?xml version="1.0" encoding="UTF-8"?><svg id="Capa_1" xmlns="http://www.w3.org/2000/svg" viewBox="0 0 583.35 100.69"><defs><style>.cls-1{fill:#ffc200;}.cls-1,.cls-2,.cls-3{stroke:#fff;}.cls-1,.cls-4,.cls-5,.cls-3{stroke-miterlimit:10;}.cls-2,.cls-3{fill:#fff;}.cls-4{stroke:#e30613;}.cls-4,.cls-5{fill:none;}.cls-5{stroke:#34d000;}</style></defs><path class="cls-3" d="m4.11,18.63c4.35-.9,10.55-1.39,16.46-1.39,9.16,0,15.09,1.67,19.22,5.42,3.36,2.95,5.22,7.49,5.22,12.63,0,8.78-5.52,14.6-12.52,16.95v.3c5.14,1.78,8.18,6.51,9.76,13.4,2.16,9.27,3.75,15.69,5.14,18.24h-8.88c-1.09-1.88-2.57-7.6-4.43-15.88-1.97-9.16-5.52-12.63-13.32-12.91h-8.09v28.79H4.11V18.63Zm8.58,30.27h8.78c9.16,0,14.98-5.03,14.98-12.63,0-8.58-6.21-12.33-15.28-12.42-4.15,0-7.11.39-8.48.79,0,0,0,24.25,0,24.25Z"/><path class="cls-2" d="m62.08,61.92c.19,11.73,7.69,16.57,16.38,16.57,6.21,0,9.95-1.09,13.21-2.46l1.48,6.21c-3.06,1.37-8.28,2.95-15.88,2.95-14.69,0-23.46-9.65-23.46-24.06s8.48-25.73,22.39-25.73c15.58,0,19.72,13.7,19.72,22.48,0,1.78-.19,3.15-.3,4.05,0,0-33.52,0-33.52,0Zm25.45-6.21c.11-5.52-2.27-14.11-12.03-14.11-8.78,0-12.63,8.09-13.32,14.11h25.35Z"/><path class="cls-2" d="m116.33,23.06c.11,2.95-2.08,5.33-5.52,5.33-3.06,0-5.22-2.38-5.22-5.33s2.27-5.42,5.42-5.42,5.33,2.38,5.33,5.42Zm-9.65,61.14v-47.74h8.67v47.74h-8.67Z"/><path class="cls-2" d="m129.73,49.39c0-4.92-.11-8.97-.39-12.91h7.69l.49,7.9h.19c2.38-4.54,7.9-8.97,15.78-8.97,6.61,0,16.87,3.94,16.87,20.32v28.49h-8.67v-27.51c0-7.69-2.87-14.11-11.05-14.11-5.72,0-10.15,4.05-11.65,8.88-.39,1.09-.6,2.57-.6,4.05v28.71h-8.67v-34.85Z"/><path class="cls-2" d="m198.49,7.44l-2.59,55.85c1.58,4.35,2.87,8.28,3.85,12.22h.3c1.09-3.94,2.46-7.9,4.05-12.22l9.27-26.82h9.08l-18.73,47.74h-8.28l-18.15-47.74s21.21-29.03,21.21-29.03Z"/><path class="cls-2" d="m234.47,61.92c.19,11.73,7.69,16.57,16.38,16.57,6.21,0,9.95-1.09,13.21-2.46l1.48,6.21c-3.06,1.37-8.28,2.95-15.88,2.95-14.69,0-23.46-9.65-23.46-24.06s8.48-25.73,22.39-25.73c15.58,0,19.72,13.7,19.72,22.48,0,1.78-.19,3.15-.3,4.05h-33.52Zm25.45-6.21c.11-5.52-2.27-14.11-12.03-14.11-8.78,0-12.63,8.09-13.32,14.11h25.35Z"/><path class="cls-2" d="m279.04,49.39c0-4.92-.11-8.97-.39-12.91h7.69l.49,7.9h.19c2.38-4.54,7.9-8.97,15.78-8.97,6.61,0,16.87,3.94,16.87,20.32v28.49h-8.67v-27.51c0-7.69-2.87-14.11-11.05-14.11-5.72,0-10.15,4.05-11.65,8.88-.39,1.09-.6,2.57-.6,4.05v28.71h-8.67v-34.85Z"/><path class="cls-2" d="m343.82,22.76v13.7h12.42v6.61h-12.42v25.73c0,5.91,1.67,9.27,6.51,9.27,2.27,0,3.94-.3,5.03-.6l.39,6.51c-1.67.69-4.35,1.18-7.69,1.18-4.05,0-7.3-1.28-9.38-3.66-2.46-2.57-3.36-6.81-3.36-12.42v-26.03h-7.41v-6.61h7.41v-11.43l8.48-2.27.02.02Z"/><path class="cls-2" d="m392.44,84.2l-.69-6.02h-.3c-2.65,3.75-7.79,7.11-14.6,7.11-9.65,0-14.6-6.81-14.6-13.7,0-11.54,10.25-17.85,28.71-17.75v-.98c0-3.94-1.09-11.05-10.85-11.05-4.43,0-9.08,1.37-12.42,3.55l-1.97-5.72c3.94-2.57,9.65-4.24,15.67-4.24,14.6,0,18.15,9.95,18.15,19.52v17.85c0,4.13.19,8.18.79,11.43h-7.9v-.02Zm-1.28-24.36c-9.46-.19-20.21,1.48-20.21,10.75,0,5.63,3.75,8.28,8.18,8.28,6.21,0,10.15-3.94,11.54-7.98.3-.9.49-1.88.49-2.76v-8.28Z"/><path class="cls-2" d="m413.54,49.39c0-4.92-.11-8.97-.39-12.91h7.6l.39,7.69h.3c2.65-4.54,7.11-8.78,14.98-8.78,6.51,0,11.43,3.94,13.51,9.57h.19c1.48-2.65,3.36-4.73,5.33-6.21,2.87-2.16,6.02-3.36,10.55-3.36,6.32,0,15.67,4.13,15.67,20.7v28.11h-8.48v-27.02c0-9.16-3.36-14.69-10.36-14.69-4.92,0-8.78,3.66-10.25,7.9-.39,1.18-.69,2.76-.69,4.35v29.48h-8.48v-28.6c0-7.6-3.36-13.12-9.95-13.12-5.42,0-9.38,4.35-10.75,8.67-.49,1.28-.69,2.76-.69,4.24v28.79h-8.48v-34.81h-.02Z"/><path class="cls-2" d="m538.99,59.95c0,17.66-12.22,25.35-23.76,25.35-12.91,0-22.88-9.46-22.88-24.55,0-15.97,10.45-25.35,23.68-25.35s22.97,9.95,22.97,24.55h0Zm-37.87.49c0,10.45,6.02,18.35,14.49,18.35s14.49-7.79,14.49-18.54c0-8.09-4.05-18.35-14.3-18.35s-14.69,9.46-14.69,18.54h0Z"/><path class="cls-2" d="m548.75,75.34c2.57,1.67,7.11,3.45,11.43,3.45,6.32,0,9.27-3.15,9.27-7.11s-2.46-6.4-8.88-8.78c-8.58-3.06-12.63-7.79-12.63-13.51,0-7.69,6.21-14,16.46-14,4.84,0,9.08,1.37,11.73,2.95l-2.16,6.32c-1.88-1.18-5.33-2.76-9.76-2.76-5.14,0-7.98,2.95-7.98,6.51,0,3.94,2.87,5.72,9.08,8.09,8.28,3.15,12.52,7.3,12.52,14.41,0,8.39-6.51,14.3-17.85,14.3-5.22,0-10.06-1.28-13.42-3.25l2.16-6.61h.04Z"/><line class="cls-4" x1="283.64" y1="99.49" x2="583.34" y2="100.19"/><path class="cls-5" d="m0,.5l30.51.06c17,.04,33.97.09,50.97.13,13.49.04,26.95.06,40.44.09,16.16.04,32.3.09,48.47.11"/><polygon class="cls-1" points="196.33 54.45 182.13 34.19 185.19 57.29 177.27 36.49 198.49 7.44 196.33 54.45"/></svg>