<?xml version="1.0" encoding="UTF-8"?><svg id="Capa_2" xmlns="http://www.w3.org/2000/svg" viewBox="0 0 371.41 376.31"><defs><style>.cls-1{fill:none;}.cls-1,.cls-2{stroke:#fff;stroke-miterlimit:10;stroke-width:9px;}</style></defs><line class="cls-1" x1="3.68" y1="139.59" x2="59.12" y2="60.69"/><line class="cls-1" x1="147.12" y1="1.69" x2="130.12" y2="62.69"/><line class="cls-1" x1="96.12" y1="80.69" x2="132.53" y2="59.79"/><line class="cls-1" x1="53.2" y1="61.71" x2="99.84" y2="80.46"/><line class="cls-1" x1="142.14" y1="4.5" x2="229.64" y2="6.9"/><line class="cls-1" x1="226.12" y1="4.69" x2="237.12" y2="24.69"/><path class="cls-1" d="m236.37,21.81l7.21,46.15-7.21-46.15Z"/><line class="cls-1" x1="241.12" y1="64.69" x2="276.12" y2="80.69"/><line class="cls-1" x1="272.43" y1="80.94" x2="322.91" y2="62.67"/><line class="cls-1" x1="317.12" y1="60.69" x2="367.12" y2="142.69"/><line class="cls-1" x1="322.12" y1="174.69" x2="368.59" y2="137.19"/><line class="cls-1" x1="325.12" y1="209.69" x2="323.87" y2="171.32"/><line class="cls-1" x1="365.22" y1="241.52" x2="323.87" y2="205.95"/><line class="cls-1" x1="323.87" y1="317" x2="365.12" y2="236.69"/><line class="cls-1" x1="268.12" y1="300.69" x2="329.12" y2="314.69"/><line class="cls-1" x1="239.26" y1="319.88" x2="272.43" y2="299.69"/><line class="cls-1" x1="224.12" y1="373.69" x2="242.12" y2="316.69"/><line class="cls-1" x1="150.32" y1="371.81" x2="228.2" y2="370.36"/><line class="cls-1" x1="134.12" y1="316.69" x2="144.55" y2="374.77"/><line class="cls-1" x1="156.62" y1="371.69" x2="140.12" y2="371.69"/><line class="cls-1" x1="101.76" y1="298.73" x2="137.34" y2="320.36"/><line class="cls-1" x1="53.68" y1="316.52" x2="106.12" y2="299.69"/><line class="cls-1" x1="4.64" y1="243.92" x2="59.12" y2="318.69"/><line class="cls-1" x1="51.12" y1="202.69" x2="4.12" y2="249.69"/><line class="cls-1" x1="50.32" y1="173.25" x2="49.36" y2="205.95"/><line class="cls-2" x1="3.12" y1="133.69" x2="52.12" y2="176.69"/><ellipse class="cls-1" cx="185.88" cy="188.87" rx="76" ry="73.8"/></svg>