<svg xmlns="http://www.w3.org/2000/svg" width="118" height="42" viewBox="0 0 118 42">
  <g id="Grupo_48" data-name="Grupo 48" transform="translate(-88 -709)">
    <g id="Rectángulo_35" data-name="Rectángulo 35" transform="translate(88 709)" fill="#fff" stroke="#707070" stroke-width="1">
      <rect width="118" height="42" stroke="none"/>
      <rect x="0.5" y="0.5" width="117" height="41" fill="none"/>
    </g>
    <g id="TikTok_logo" transform="translate(97.272 714.181)">
      <path id="Trazado_10" data-name="Trazado 10" d="M54.388,20.977A11.406,11.406,0,0,0,61.041,23.1V18.333a6.738,6.738,0,0,1-1.4-.146v3.756a11.408,11.408,0,0,1-6.653-2.128v9.738a8.827,8.827,0,0,1-13.737,7.328,8.826,8.826,0,0,0,15.135-6.167V20.977Zm1.724-4.814a6.649,6.649,0,0,1-1.724-3.894v-.614H53.064a6.681,6.681,0,0,0,3.048,4.508ZM42.336,33.143a4.037,4.037,0,0,1,4.438-6.288V21.977a8.9,8.9,0,0,0-1.4-.08v3.8a4.036,4.036,0,0,0-3.041,7.45Z" transform="translate(-35.341 -10.493)" fill="#ff004f"/>
      <path id="Trazado_11" data-name="Trazado 11" d="M30.271,19.815a11.408,11.408,0,0,0,6.653,2.128V18.187a6.679,6.679,0,0,1-3.532-2.024,6.681,6.681,0,0,1-3.048-4.508H26.866V30.714a4.037,4.037,0,0,1-7.25,2.429,4.036,4.036,0,0,1,3.041-7.45V21.9a8.819,8.819,0,0,0-6.123,14.985,8.827,8.827,0,0,0,13.737-7.328V19.815Z" transform="translate(-12.621 -10.493)"/>
      <path id="Trazado_12" data-name="Trazado 12" d="M24.3,7.693V6.678a6.655,6.655,0,0,1-3.532-1.009A6.673,6.673,0,0,0,24.3,7.693Zm-6.58-6.532Q17.675.889,17.65.614V0h-4.8V19.06a4.039,4.039,0,0,1-5.853,3.59,4.038,4.038,0,0,0,7.25-2.429V1.162ZM10.036,11.4V10.322a8.914,8.914,0,0,0-1.211-.082A8.82,8.82,0,0,0,3.913,26.388,8.819,8.819,0,0,1,10.036,11.4Z" fill="#00f2ea"/>
      <path id="Trazado_13" data-name="Trazado 13" d="M793.532,126.5a6.264,6.264,0,1,0,0-12.527h-.951a6.264,6.264,0,1,1,0,12.527Z" transform="translate(-713.585 -102.615)" fill="#ff004f"/>
      <path id="Trazado_14" data-name="Trazado 14" d="M726.08,113.975h-.951a6.264,6.264,0,1,0,0,12.527h.951a6.264,6.264,0,1,1,0-12.527Z" transform="translate(-647.17 -102.615)" fill="#00f2ea"/>
      <path id="Trazado_15" data-name="Trazado 15" d="M310.062,85.572v3.175h3.719v12.1h3.72V88.832h3.027l1.038-3.26h-11.5Zm30.447,0v3.175h3.719v12.1h3.72V88.832h3.027l1.038-3.26h-11.5Zm-18.25,1.8a1.816,1.816,0,1,1,1.815,1.8A1.808,1.808,0,0,1,322.259,87.374Zm0,3.089h3.632v10.381h-3.632Zm5.189-4.891v15.272h3.633V96.9l1.125-1.03,3.546,5.063h3.892l-5.1-7.379,4.585-4.462h-4.411l-3.632,3.6v-7.12Zm39.183,0v15.272h3.634V96.9l1.124-1.03,3.547,5.063h3.893l-5.1-7.379,4.584-4.462H373.9l-3.633,3.6v-7.12Z" transform="translate(-279.158 -77.043)"/>
      <path id="Trazado_16" data-name="Trazado 16" d="M734.759,126.5a6.264,6.264,0,1,0,0-12.527h-.086a6.264,6.264,0,1,0,0,12.527Zm-3.114-6.263a3.071,3.071,0,1,1,3.072,3.046A3.058,3.058,0,0,1,731.645,120.239Z" transform="translate(-655.763 -102.615)"/>
    </g>
  </g>
</svg>
