<svg xmlns="http://www.w3.org/2000/svg" width="185.553" height="44.624" viewBox="0 0 185.553 44.624">
  <g id="Grupo_47" data-name="Grupo 47" transform="translate(-176.447 -394.35)">
    <g id="ChatGPT_logo" transform="translate(176.447 394.35)">
      <path id="Trazado_4" data-name="Trazado 4" d="M1,10.574A9.574,9.574,0,0,1,10.574,1H31.285a9.574,9.574,0,0,1,9.575,9.574v30.3H10.574A9.574,9.574,0,0,1,1,31.3Z" transform="translate(-1 -1)" fill="#74aa9c"/>
      <path id="a" d="M657.582,299.1a7.59,7.59,0,0,0-7.216,5.228L650,306.464v7.1a.983.983,0,0,0,.487.852L656.2,317.7v-9.75h0v-.463l5.782-3.339a5.6,5.6,0,0,1,1.8-.66l-.557-1.888A7.524,7.524,0,0,0,657.582,299.1Zm0,1.948-.01.01a5.631,5.631,0,0,1,3.608,1.3c-.041.02-.123.071-.182.1l-5.977,3.442a.971.971,0,0,0-.487.852v8.08l-2.572-1.482v-6.679A5.625,5.625,0,0,1,657.582,301.044Z" transform="translate(-639.239 -294.152)" fill="#fff"/>
      <path id="Trazado_5" data-name="Trazado 5" d="M7.582,0A7.59,7.59,0,0,0,.366,5.228L0,7.369v7.095a.983.983,0,0,0,.487.852L6.2,18.607V8.858h0V8.395l5.782-3.339a5.6,5.6,0,0,1,1.8-.66l-.557-1.888A7.524,7.524,0,0,0,7.582,0Zm0,1.948-.01.01a5.631,5.631,0,0,1,3.608,1.3c-.041.02-.123.071-.182.1L5.021,6.8a.971.971,0,0,0-.487.852v8.08L1.962,14.251V7.573A5.625,5.625,0,0,1,7.582,1.948Z" transform="translate(28.325 4.496) rotate(60)" fill="#fff"/>
      <path id="Trazado_6" data-name="Trazado 6" d="M7.582,0A7.59,7.59,0,0,0,.366,5.228L0,7.369v7.095a.983.983,0,0,0,.487.852L6.2,18.607V8.858h0V8.395l5.782-3.339a5.6,5.6,0,0,1,1.8-.66l-.557-1.888A7.524,7.524,0,0,0,7.582,0Zm0,1.948-.01.01a5.631,5.631,0,0,1,3.608,1.3c-.041.02-.123.071-.182.1L5.021,6.8a.971.971,0,0,0-.487.852v8.08L1.962,14.251V7.573A5.625,5.625,0,0,1,7.582,1.948Z" transform="translate(37.494 19.483) rotate(120)" fill="#fff"/>
      <path id="Trazado_7" data-name="Trazado 7" d="M7.582,0A7.59,7.59,0,0,0,.366,5.228L0,7.369v7.095a.983.983,0,0,0,.487.852L6.2,18.607V8.858h0V8.395l5.782-3.339a5.6,5.6,0,0,1,1.8-.66l-.557-1.888A7.524,7.524,0,0,0,7.582,0Zm0,1.948-.01.01a5.631,5.631,0,0,1,3.608,1.3c-.041.02-.123.071-.182.1L5.021,6.8a.971.971,0,0,0-.487.852v8.08L1.962,14.251V7.573A5.625,5.625,0,0,1,7.582,1.948Z" transform="translate(29.099 34.918) rotate(180)" fill="#fff"/>
      <path id="Trazado_8" data-name="Trazado 8" d="M7.582,0A7.59,7.59,0,0,0,.366,5.228L0,7.369v7.095a.983.983,0,0,0,.487.852L6.2,18.607V8.858h0V8.395l5.782-3.339a5.6,5.6,0,0,1,1.8-.66l-.557-1.888A7.524,7.524,0,0,0,7.582,0Zm0,1.948-.01.01a5.631,5.631,0,0,1,3.608,1.3c-.041.02-.123.071-.182.1L5.021,6.8a.971.971,0,0,0-.487.852v8.08L1.962,14.251V7.573A5.625,5.625,0,0,1,7.582,1.948Z" transform="translate(11.535 35.365) rotate(-120)" fill="#fff"/>
      <path id="Trazado_9" data-name="Trazado 9" d="M7.582,0A7.59,7.59,0,0,0,.366,5.228L0,7.369v7.095a.983.983,0,0,0,.487.852L6.2,18.607V8.858h0V8.395l5.782-3.339a5.6,5.6,0,0,1,1.8-.66l-.557-1.888A7.524,7.524,0,0,0,7.582,0Zm0,1.948-.01.01a5.631,5.631,0,0,1,3.608,1.3c-.041.02-.123.071-.182.1L5.021,6.8a.971.971,0,0,0-.487.852v8.08L1.962,14.251V7.573A5.625,5.625,0,0,1,7.582,1.948Z" transform="translate(2.366 20.377) rotate(-60)" fill="#fff"/>
    </g>
    <text id="Chatgpt" transform="translate(225 430.974)" fill="#fff" font-size="39" font-family="ArialMT, Arial"><tspan x="0" y="0">Chatgpt</tspan></text>
  </g>
</svg>
